<svg width="22" height="22" viewBox="0 0 22 22" fill="none" xmlns="http://www.w3.org/2000/svg">
<path d="M10.9997 18.3337C11.5059 18.3337 11.9163 17.9233 11.9163 17.417C11.9163 16.9107 11.5059 16.5003 10.9997 16.5003C10.4934 16.5003 10.083 16.9107 10.083 17.417C10.083 17.9233 10.4934 18.3337 10.9997 18.3337Z" stroke="#6F6B7D" stroke-width="2" stroke-linecap="round" stroke-linejoin="round"/>
<path d="M10.9997 11.917C11.5059 11.917 11.9163 11.5066 11.9163 11.0003C11.9163 10.4941 11.5059 10.0837 10.9997 10.0837C10.4934 10.0837 10.083 10.4941 10.083 11.0003C10.083 11.5066 10.4934 11.917 10.9997 11.917Z" stroke="#6F6B7D" stroke-width="2" stroke-linecap="round" stroke-linejoin="round"/>
<path d="M10.9997 5.50033C11.5059 5.50033 11.9163 5.08992 11.9163 4.58366C11.9163 4.0774 11.5059 3.66699 10.9997 3.66699C10.4934 3.66699 10.083 4.0774 10.083 4.58366C10.083 5.08992 10.4934 5.50033 10.9997 5.50033Z" stroke="#6F6B7D" stroke-width="2" stroke-linecap="round" stroke-linejoin="round"/>
</svg>
