<svg width="24" height="24" viewBox="0 0 24 24" fill="none" xmlns="http://www.w3.org/2000/svg">
<path d="M17.9331 4.80135C17.9465 4.8923 17.9677 5.02368 17.9917 5.19549L18.3784 7.87412H19.013L19.421 5.13135C19.445 4.97976 19.4636 4.85848 19.4743 4.76753C19.4877 4.67987 19.4957 4.60912 19.5037 4.56211C19.5117 4.51158 19.5143 4.47445 19.5143 4.44766V4.34331C19.5143 4.08055 19.445 3.87842 19.3116 3.73695C19.1756 3.59546 18.9783 3.52472 18.7223 3.52472C18.1676 3.52472 17.8931 3.79759 17.8931 4.34353V4.4547C17.8931 4.48502 17.8957 4.52873 17.9037 4.58279C17.9117 4.63661 17.9223 4.71088 17.9357 4.80512L17.9331 4.80135Z" fill="#EA5455"/>
<path d="M19.1568 8.44738C19.0954 8.36982 19.0262 8.31271 18.9488 8.26876C18.8714 8.22505 18.7888 8.20483 18.7008 8.20483C18.6075 8.20483 18.5195 8.22505 18.4369 8.26876C18.3543 8.31248 18.2823 8.36982 18.2209 8.44386C18.1595 8.51789 18.1116 8.60556 18.077 8.70662C18.0424 8.80768 18.0264 8.91556 18.0264 9.03354C18.0264 9.15152 18.0424 9.2594 18.077 9.36046C18.1116 9.46153 18.1596 9.54919 18.2209 9.62675C18.2823 9.70431 18.3515 9.76142 18.4343 9.80537C18.5143 9.84909 18.6023 9.8693 18.693 9.8693C18.8744 9.8693 19.029 9.78845 19.1569 9.62676C19.2875 9.46506 19.3517 9.26622 19.3517 9.03378C19.3517 8.92261 19.3357 8.81803 19.3011 8.71697C19.2665 8.61591 19.2185 8.52824 19.1571 8.45068L19.1568 8.44738Z" fill="#EA5455"/>
<path d="M23.9999 6.80607C23.9999 3.05268 21.584 0 18.6132 0C15.864 0 13.5894 2.61798 13.2665 5.98401H1.36271C0.610667 5.98401 0 6.75559 0 7.7058V22.2782C0 23.2284 0.610667 24 1.36271 24H20.7599C21.5119 24 22.1226 23.2284 22.1226 22.2782V11.965C23.272 10.7149 23.9999 8.86793 23.9999 6.80607ZM18.6132 1.40844C20.9705 1.40844 22.8851 3.83112 22.8851 6.80607C22.8851 9.78126 20.9677 12.2037 18.6132 12.2037C16.2585 12.2037 14.3412 9.78102 14.3412 6.80607C14.3412 3.83088 16.2587 1.40844 18.6132 1.40844ZM21.0079 22.2779C21.0079 22.4497 20.8959 22.5912 20.76 22.5912H1.36281C1.22683 22.5912 1.11486 22.4497 1.11486 22.2779L1.11467 7.7055C1.11467 7.5337 1.22665 7.39221 1.36262 7.39221H13.2479C13.3678 9.14764 14.0159 10.7178 14.9919 11.8399L11.6132 14.9328C11.2319 15.2799 10.7172 15.29 10.3304 14.9563L2.85043 8.4974C2.62369 8.30209 2.31715 8.37612 2.16239 8.66239C2.00781 8.94888 2.0664 9.33619 2.29297 9.53174L9.77011 15.9876C10.1274 16.2976 10.5433 16.4492 10.9569 16.4492C11.3702 16.4492 11.8263 16.2807 12.1916 15.9439L15.6555 12.7767C15.7089 12.7262 15.7541 12.6655 15.7861 12.5981C16.6074 13.2415 17.5754 13.6122 18.6102 13.6122C19.4688 13.6122 20.2822 13.356 21.0049 12.9012V22.2782L21.0079 22.2779Z" fill="#EA5455"/>
</svg>
