<svg width="26" height="26" viewBox="0 0 26 26" fill="none" xmlns="http://www.w3.org/2000/svg">
<path d="M10.833 5.41667C10.833 4.22005 11.8031 3.25 12.9997 3.25C14.1963 3.25 15.1663 4.22005 15.1663 5.41667C17.7015 6.61543 19.3682 9.11543 19.4997 11.9167V15.1667C19.665 16.5325 20.4691 17.7387 21.6663 18.4167H4.33301C5.53021 17.7387 6.33434 16.5325 6.49967 15.1667V11.9167C6.63116 9.11543 8.29782 6.61543 10.833 5.41667" stroke="#979797" stroke-linecap="round" stroke-linejoin="round"/>
<path d="M9.75 18.417V19.5003C9.75 21.2953 11.2051 22.7503 13 22.7503C14.7949 22.7503 16.25 21.2953 16.25 19.5003V18.417" stroke="#979797" stroke-linecap="round" stroke-linejoin="round"/>
<circle cx="18" cy="6" r="3" fill="#EA5455"/>
</svg>
