<svg width="20" height="21" viewBox="0 0 20 21" fill="none" xmlns="http://www.w3.org/2000/svg">
<path fill-rule="evenodd" clip-rule="evenodd" d="M8.60417 4.0975C8.95917 2.63417 11.0408 2.63417 11.3958 4.0975C11.5039 4.54338 11.8184 4.91085 12.2422 5.08645C12.6661 5.26206 13.1483 5.22467 13.54 4.98583C14.8258 4.2025 16.2983 5.67417 15.515 6.96083C15.2765 7.35238 15.2392 7.83423 15.4146 8.25782C15.59 8.6814 15.957 8.99583 16.4025 9.10417C17.8658 9.45917 17.8658 11.5408 16.4025 11.8958C15.9566 12.0039 15.5891 12.3184 15.4135 12.7422C15.2379 13.1661 15.2753 13.6483 15.5142 14.04C16.2975 15.3258 14.8258 16.7983 13.5392 16.015C13.1476 15.7765 12.6658 15.7392 12.2422 15.9146C11.8186 16.09 11.5042 16.457 11.3958 16.9025C11.0408 18.3658 8.95917 18.3658 8.60417 16.9025C8.49613 16.4566 8.18164 16.0891 7.75779 15.9135C7.33394 15.7379 6.85172 15.7753 6.46 16.0142C5.17417 16.7975 3.70167 15.3258 4.485 14.0392C4.72349 13.6476 4.76079 13.1658 4.58539 12.7422C4.41 12.3186 4.04298 12.0042 3.5975 11.8958C2.13417 11.5408 2.13417 9.45917 3.5975 9.10417C4.04338 8.99613 4.41085 8.68164 4.58645 8.25779C4.76206 7.83394 4.72467 7.35172 4.48583 6.96C3.7025 5.67417 5.17417 4.20167 6.46083 4.985C7.29417 5.49167 8.37417 5.04333 8.60417 4.0975Z" stroke="white" stroke-width="1.75" stroke-linecap="round" stroke-linejoin="round"/>
<circle cx="10" cy="10.5" r="2.5" stroke="white" stroke-width="1.75" stroke-linecap="round" stroke-linejoin="round"/>
</svg>
