<svg width="14" height="12" viewBox="0 0 14 12" fill="none" xmlns="http://www.w3.org/2000/svg">
<path d="M5.00004 0C4.11599 0 3.26814 0.351189 2.64302 0.976311C2.0179 1.60143 1.66671 2.44928 1.66671 3.33333C1.66671 4.21739 2.0179 5.06523 2.64302 5.69036C3.26814 6.31548 4.11599 6.66667 5.00004 6.66667C5.8841 6.66667 6.73194 6.31548 7.35706 5.69036C7.98218 5.06523 8.33337 4.21739 8.33337 3.33333C8.33337 2.44928 7.98218 1.60143 7.35706 0.976311C6.73194 0.351189 5.8841 0 5.00004 0ZM3.00004 3.33333C3.00004 2.8029 3.21075 2.29419 3.58583 1.91912C3.9609 1.54405 4.46961 1.33333 5.00004 1.33333C5.53047 1.33333 6.03918 1.54405 6.41425 1.91912C6.78933 2.29419 7.00004 2.8029 7.00004 3.33333C7.00004 3.86377 6.78933 4.37247 6.41425 4.74755C6.03918 5.12262 5.53047 5.33333 5.00004 5.33333C4.46961 5.33333 3.9609 5.12262 3.58583 4.74755C3.21075 4.37247 3.00004 3.86377 3.00004 3.33333ZM10.272 3.47867C10.0846 3.38314 9.87713 3.33333 9.66671 3.33333V2C10.0877 2.00003 10.5027 2.09974 10.8778 2.29098C11.2529 2.48222 11.5774 2.75955 11.8247 3.10028C12.072 3.44101 12.2351 3.83545 12.3006 4.25133C12.3662 4.6672 12.3324 5.0927 12.2019 5.49299C12.0715 5.89328 11.8481 6.25699 11.5501 6.55437C11.252 6.85174 10.8878 7.07432 10.4872 7.2039C10.0867 7.33347 9.66109 7.36636 9.24536 7.29987C8.82963 7.23337 8.43555 7.06939 8.09537 6.82133L8.88071 5.744C9.02939 5.85221 9.19885 5.92849 9.37843 5.96806C9.55801 6.00762 9.74384 6.00961 9.92423 5.9739C10.1046 5.93819 10.2757 5.86555 10.4266 5.76055C10.5776 5.65555 10.7052 5.52046 10.8015 5.36376C10.8977 5.20707 10.9605 5.03216 10.9859 4.85003C11.0113 4.6679 10.9987 4.48248 10.949 4.30544C10.8993 4.1284 10.8134 3.96356 10.697 3.82128C10.5805 3.67899 10.4358 3.56235 10.272 3.47867ZM12.332 12C12.3319 11.2932 12.051 10.6153 11.5512 10.1155C11.0514 9.61571 10.3735 9.33484 9.66671 9.33467V8C10.7275 8.00018 11.7448 8.42166 12.4949 9.17177C13.245 9.92188 13.6665 10.9392 13.6667 12H12.332ZM9.66671 12H8.33337C8.33337 11.1159 7.98218 10.2681 7.35706 9.64298C6.73194 9.01786 5.8841 8.66667 5.00004 8.66667C4.11599 8.66667 3.26814 9.01786 2.64302 9.64298C2.0179 10.2681 1.66671 11.1159 1.66671 12H0.333374C0.333374 10.7623 0.825039 9.57534 1.70021 8.70017C2.57538 7.825 3.76236 7.33333 5.00004 7.33333C6.23772 7.33333 7.4247 7.825 8.29987 8.70017C9.17504 9.57534 9.66671 10.7623 9.66671 12Z" fill="#09B451"/>
</svg>
