<svg width="16" height="15" viewBox="0 0 16 15" fill="none" xmlns="http://www.w3.org/2000/svg">
<path d="M14.9627 5.20694L10.4996 4.55831L8.50448 0.513581C8.44999 0.402839 8.36034 0.31319 8.2496 0.258698C7.97186 0.121589 7.63436 0.235846 7.49549 0.513581L5.50038 4.55831L1.03729 5.20694C0.914245 5.22452 0.801745 5.28253 0.715612 5.37042C0.611482 5.47744 0.554102 5.62143 0.55608 5.77074C0.558057 5.92006 0.619231 6.06247 0.726159 6.16671L3.95526 9.31495L3.19237 13.7605C3.17448 13.8639 3.18592 13.9702 3.2254 14.0675C3.26488 14.1647 3.33082 14.2489 3.41573 14.3106C3.50065 14.3723 3.60114 14.4089 3.70583 14.4164C3.81051 14.4239 3.91519 14.4018 4.00799 14.3528L7.99999 12.254L11.992 14.3528C12.101 14.4108 12.2275 14.4302 12.3488 14.4091C12.6547 14.3564 12.8603 14.0663 12.8076 13.7605L12.0447 9.31495L15.2738 6.16671C15.3617 6.08057 15.4197 5.96807 15.4373 5.84503C15.4848 5.53741 15.2703 5.25264 14.9627 5.20694ZM10.6859 8.87198L11.3205 12.5687L7.99999 10.8249L4.67948 12.5704L5.31405 8.87374L2.62811 6.2546L6.34061 5.71495L7.99999 2.35225L9.65936 5.71495L13.3719 6.2546L10.6859 8.87198Z" fill="#09B451"/>
</svg>
