<svg width="18" height="14" viewBox="0 0 18 14" fill="none" xmlns="http://www.w3.org/2000/svg">
<path fill-rule="evenodd" clip-rule="evenodd" d="M15.25 1.06255L9.00003 10.4376L2.75003 1.06255C2.66795 0.939437 2.56243 0.833694 2.43949 0.75136C2.31654 0.669026 2.17859 0.611714 2.0335 0.582696C1.88841 0.553678 1.73902 0.553523 1.59387 0.582238C1.44872 0.610952 1.31064 0.667975 1.18753 0.750051C1.06441 0.832128 0.958669 0.937649 0.876335 1.06059C0.794002 1.18353 0.73669 1.32149 0.707672 1.46658C0.678653 1.61167 0.678497 1.76106 0.707211 1.90621C0.735926 2.05136 0.79295 2.18944 0.875026 2.31255L7.96003 12.9401C8.07418 13.1112 8.22883 13.2516 8.41025 13.3487C8.59168 13.4458 8.79426 13.4966 9.00003 13.4966C9.20579 13.4966 9.40838 13.4458 9.5898 13.3487C9.77122 13.2516 9.92587 13.1112 10.04 12.9401L17.125 2.31255C17.2071 2.18944 17.2641 2.05136 17.2928 1.90621C17.3216 1.76106 17.3214 1.61167 17.2924 1.46658C17.2634 1.32149 17.2061 1.18353 17.1237 1.06059C17.0414 0.937649 16.9356 0.832128 16.8125 0.750051C16.6894 0.667975 16.5513 0.610952 16.4062 0.582238C16.261 0.553523 16.1116 0.553678 15.9666 0.582696C15.8215 0.611714 15.6835 0.669026 15.5606 0.75136C15.4376 0.833694 15.3321 0.939437 15.25 1.06255Z" fill="white"/>
</svg>
