<svg width="97" height="62" viewBox="0 0 97 62" fill="none" xmlns="http://www.w3.org/2000/svg">
<path d="M18.8479 42.8136L18.5396 43.3247C17.8221 43.3247 17.1298 43.3748 16.4578 43.48C14.8509 48.8961 11.1672 51.6017 5.41685 51.6017C3.99695 51.6017 2.81453 51.3813 1.87466 50.9353C0.626558 50.3541 0 49.4373 0 48.1747C0 47.4582 0.237475 46.857 0.707408 46.371C1.17734 45.885 1.77362 45.6445 2.49115 45.6445C3.73925 45.6445 4.36584 46.1655 4.36584 47.2027C4.36584 47.7137 4.10813 48.0745 3.59777 48.2749C3.30469 48.345 2.87518 48.4603 2.29913 48.6206C1.72308 48.7809 1.44011 49.0615 1.44011 49.4523C1.44011 49.9984 1.89488 50.4143 2.79938 50.7049C3.48154 50.9253 4.16876 51.0356 4.85597 51.0356C6.79129 51.0356 8.44363 50.294 9.81301 48.811C10.8388 47.7037 11.7736 46.0954 12.6124 43.981C11.7887 44.1313 10.8994 44.467 9.94439 44.9731C9.68669 45.1234 8.86809 45.5994 7.4785 46.401L7.35218 46.3509C7.33702 46.3008 7.31682 46.2557 7.30166 46.2257C7.30166 45.7497 8.10508 45.1735 9.717 44.4921C11.051 43.9309 12.0869 43.5852 12.8246 43.4499C13.2541 42.2475 14.0576 40.7594 15.24 38.9958C16.6801 36.8414 17.8221 35.7441 18.6811 35.714L18.7822 35.7641L18.8327 35.9445C18.2011 37.4727 17.7615 38.61 17.524 39.3565C17.1652 40.4939 16.8822 41.6913 16.6751 42.9439C17.1652 42.9088 17.8928 42.8637 18.8479 42.8136ZM7.34712 43.3748C6.42241 43.3748 5.65939 43.1143 5.06313 42.5982C4.46182 42.0821 4.16371 41.3707 4.16371 40.4738C4.16371 39.6772 4.42647 38.8355 4.9621 37.9536C6.05861 36.1399 7.62505 34.6769 9.66142 33.5746C11.6473 32.4874 13.7241 31.9463 15.9019 31.9463C16.6902 31.9463 17.8575 32.1217 19.4087 32.4674C20.96 32.8181 22.1071 32.9884 22.86 32.9884C23.2187 32.9884 23.8858 32.803 24.861 32.4273L25.0126 32.4774L25.0631 32.6277C25.0631 33.1888 24.6538 33.74 23.8302 34.2811C23.0773 34.8072 22.4001 35.0727 21.8039 35.0727C21.0863 35.0727 19.7877 34.742 17.9131 34.0807C16.0384 33.4193 14.5983 33.0886 13.5877 33.0886C11.243 33.0886 8.98431 34.2109 6.8115 36.4505C5.42696 37.8785 4.72965 39.2062 4.72965 40.4488C4.72965 41.0099 4.89135 41.4909 5.21475 41.9018C5.53814 42.3076 5.97774 42.513 6.52347 42.513C7.90801 42.513 9.10052 41.9018 10.0909 40.6792C11.0308 39.5419 11.5007 38.2693 11.5007 36.8614C11.5007 36.4706 11.339 36.2752 11.0106 36.2752C10.6316 36.2752 10.2425 36.7011 9.82818 37.5478C9.51995 38.1941 9.31276 38.7803 9.2117 39.3064C8.83272 39.4768 8.39817 39.7323 7.90297 40.068C7.1147 40.6091 6.7054 40.8997 6.67003 40.9348C6.63466 40.8145 6.59928 40.6893 6.56896 40.554C6.56896 39.1611 6.93783 37.9336 7.67052 36.8614C8.49417 35.6389 9.57048 35.0276 10.9045 35.0276C12.0869 35.0276 12.6781 35.8142 12.6781 37.3925V37.648C12.6781 39.2112 12.1829 40.544 11.1875 41.6462C10.187 42.7986 8.90346 43.3748 7.34712 43.3748Z" fill="#191919"/>
<path d="M25.5227 45.4393C25.5227 45.6447 25.2751 45.805 24.7799 45.9203C24.3858 46.0205 24.0422 46.0756 23.7542 46.0756C23.5672 46.0756 23.3752 46.0756 23.1882 46.0756C22.5364 47.3031 21.7683 48.4054 20.879 49.3774C19.646 50.7402 18.5445 51.4216 17.5692 51.4216C16.215 51.4216 15.543 50.8103 15.543 49.5878C15.543 48.0597 16.2807 46.3712 17.7511 44.5224C19.2923 42.6035 20.8133 41.6465 22.3191 41.6465C23.4813 41.6465 24.0675 42.1826 24.0675 43.2498C24.0675 43.6055 23.8805 44.302 23.5015 45.3391C23.6733 45.3892 23.8249 45.4142 23.9664 45.4142C24.1028 45.4142 24.31 45.3892 24.5828 45.3391C24.8557 45.289 25.0629 45.2639 25.1993 45.2639C25.4116 45.2589 25.5227 45.319 25.5227 45.4393ZM22.4454 45.8952C21.5056 45.795 20.8385 45.3341 20.4444 44.5224C20.1513 44.8631 19.7269 45.5896 19.1609 46.7119V46.6869C19.1256 46.8722 18.9891 47.228 18.7516 47.754C18.5445 48.21 18.4434 48.5758 18.4434 48.8463C18.4434 49.187 18.6152 49.3574 18.9588 49.3574C20.0654 49.3574 21.2276 48.205 22.4454 45.8952ZM23.3398 43.4001C23.3398 42.8389 23.1175 42.5584 22.6728 42.5584C22.3292 42.5584 21.9654 42.7137 21.5813 43.0193C21.1973 43.3249 21.0053 43.6406 21.0053 43.9613C21.0053 44.302 21.1822 44.6126 21.5308 44.8882C21.8795 45.1637 22.2281 45.309 22.5717 45.309C22.6071 45.309 22.6475 45.299 22.6981 45.284V45.2589C22.8547 45.2589 23.0063 44.9884 23.1629 44.4422C23.2842 44.0214 23.3398 43.6706 23.3398 43.4001Z" fill="#191919"/>
<path d="M34.0979 45.4393C34.0979 45.6447 33.8503 45.805 33.3552 45.9203C32.961 46.0205 32.6174 46.0756 32.3294 46.0756C32.1424 46.0756 31.9504 46.0756 31.7634 46.0756C31.1116 47.3031 30.3435 48.4054 29.4542 49.3774C28.2212 50.7402 27.1197 51.4216 26.1444 51.4216C24.7902 51.4216 24.1182 50.8103 24.1182 49.5878C24.1182 48.0597 24.8559 46.3712 26.3263 44.5224C27.8675 42.6035 29.3885 41.6465 30.8943 41.6465C32.0565 41.6465 32.6427 42.1826 32.6427 43.2498C32.6427 43.6055 32.4557 44.302 32.0767 45.3391C32.2485 45.3892 32.4001 45.4142 32.5416 45.4142C32.678 45.4142 32.8852 45.3892 33.1581 45.3391C33.4309 45.289 33.6381 45.2639 33.7745 45.2639C33.9868 45.2589 34.0979 45.319 34.0979 45.4393ZM31.0206 45.8952C30.0808 45.795 29.4138 45.3341 29.0196 44.5224C28.7265 44.8631 28.3021 45.5896 27.7362 46.7119V46.6869C27.7008 46.8722 27.5644 47.228 27.3269 47.754C27.1197 48.21 27.0186 48.5758 27.0186 48.8463C27.0186 49.187 27.1904 49.3574 27.534 49.3574C28.6406 49.3574 29.8029 48.205 31.0206 45.8952ZM31.915 43.4001C31.915 42.8389 31.6927 42.5584 31.248 42.5584C30.9044 42.5584 30.5406 42.7137 30.1566 43.0193C29.7725 43.3249 29.5805 43.6406 29.5805 43.9613C29.5805 44.302 29.7574 44.6126 30.106 44.8882C30.4547 45.1637 30.8034 45.309 31.147 45.309C31.1823 45.309 31.2228 45.299 31.2733 45.284V45.2589C31.4299 45.2589 31.5815 44.9884 31.7382 44.4422C31.8594 44.0214 31.915 43.6706 31.915 43.4001Z" fill="#191919"/>
<path d="M47.013 34.5412C46.5683 35.6636 45.8558 37.2719 44.8806 39.3762C44.2136 40.7991 43.7335 41.7962 43.4455 42.3523C42.8998 43.4746 42.349 44.4316 41.8033 45.2282C40.7927 46.7213 40.1004 47.9588 39.7214 48.9459L39.9539 49.0962C40.6057 48.8908 41.1767 48.4248 41.6769 47.6983C42.2429 46.8866 42.6017 46.4257 42.7533 46.3255H42.8543C42.92 46.4107 42.9554 46.5059 42.9554 46.6061C42.9554 47.3175 42.3591 48.2795 41.1716 49.482C39.9842 50.6895 39.0292 51.2907 38.3066 51.2907C37.7608 51.2907 37.3819 51.1554 37.1747 50.8849C37.1242 50.8197 36.9776 50.444 36.7401 49.7626C36.159 50.7796 35.3606 51.2907 34.35 51.2907C33.8902 51.2907 33.486 51.0953 33.1423 50.7045C32.7987 50.3137 32.627 49.8878 32.627 49.4319C32.627 47.9889 33.8296 46.0199 36.2298 43.5247C37.5183 42.182 38.6906 41.5156 39.7517 41.5156C39.8882 41.5156 40.1307 41.6058 40.4693 41.7811C40.8129 41.9615 41.0605 42.0567 41.2171 42.0717C41.2879 42.0367 41.3435 41.9214 41.399 41.716C41.4647 41.4455 41.7679 40.6839 42.2985 39.4313C43.2535 37.1366 44.0519 35.3629 44.6987 34.1054L46.1337 34.0502C46.5178 34.0402 46.8058 34.2005 47.013 34.5412ZM40.7219 42.7882C40.6714 42.5678 40.5147 42.4575 40.257 42.4575C40.0196 42.4575 39.7618 42.5678 39.489 42.7882V42.7632C38.635 43.4596 37.8265 44.3665 37.0736 45.4888C36.1843 46.7965 35.7396 47.8887 35.7396 48.7705C35.7396 49.1262 35.8861 49.3066 36.1742 49.3066C36.5683 49.3066 37.392 48.3497 38.6401 46.4307C39.7568 44.7322 40.4491 43.5197 40.7219 42.7882Z" fill="#191919"/>
<path d="M78.8731 41.6162L76.7154 45.2337C76.3364 45.8449 75.9625 46.4462 75.5835 47.0424C75.154 47.7538 74.8407 48.3902 74.6336 48.9513L74.866 49.1016C75.5178 48.8962 76.1343 48.3902 76.7154 47.5735C77.2965 46.7568 77.6149 46.3409 77.6654 46.3259H77.7664C77.8321 46.4111 77.8675 46.5063 77.8675 46.6065C77.8675 47.3179 77.2713 48.2799 76.0838 49.4824C74.8963 50.6899 73.9413 51.2911 73.2187 51.2911C72.673 51.2911 72.294 51.1558 72.0868 50.8853C72.0363 50.8201 71.8897 50.4444 71.6523 49.763C71.0712 50.7801 70.2728 51.2911 69.2622 51.2911C68.8023 51.2911 68.3981 51.0957 68.0545 50.7049C67.7109 50.3141 67.5391 49.8882 67.5391 49.4323C67.5391 49.0916 67.625 48.7359 67.7968 48.3651L70.773 41.8467L73.724 41.6162C73.0418 42.5331 72.3698 43.6003 71.723 44.8228C70.9347 46.3359 70.5406 47.4883 70.5406 48.2849C70.5406 48.9663 70.7225 49.302 71.0813 49.302C71.5461 49.302 72.4405 48.2098 73.7745 46.0203C74.8003 44.3569 75.5633 42.964 76.0585 41.8467L78.8731 41.6162Z" fill="#191919"/>
<path d="M87.7963 34.416L85.77 38.2589H87.6851L87.5032 38.9453H85.2748L81 46.9618C80.6968 47.538 80.5452 48.1843 80.5452 48.9008L80.8282 49.5121C80.8939 49.5271 80.9393 49.5371 80.9545 49.5371C81.2779 49.5371 81.8034 49.1363 82.5209 48.3397C83.2385 47.543 83.6831 47.1422 83.8549 47.1422C83.9408 47.1422 83.9813 47.1823 83.9813 47.2674C83.9813 47.4729 83.6023 48.014 82.8494 48.8958C81.3436 50.6594 80.2471 51.5412 79.5649 51.5412C79.1354 51.5412 78.7817 51.3859 78.4987 51.0703C78.2157 50.7546 78.0742 50.3889 78.0742 49.963C78.0742 48.5551 78.529 46.8566 79.4335 44.8725C79.6407 44.4316 80.4846 42.8534 81.9752 40.1378L85.0576 34.5363L87.7963 34.416Z" fill="#191919"/>
<path d="M28.1152 20.8835C31.4957 20.2873 34.8156 19.6309 38.1556 19.1349C43.1834 18.3934 47.8676 16.5646 52.6275 14.9313C55.3208 14.0094 58.1354 13.2929 60.955 12.9372C62.956 12.6816 65.0682 13.0975 67.1045 13.3781C68.3931 13.5585 68.4133 13.7639 68.1455 15.1968C63.7998 13.9843 59.4744 14.1998 55.1743 15.4724C59.5199 14.7609 63.8504 14.33 68.1 16.0987C67.5189 18.8393 66.1343 20.9837 64.0424 22.6672C61.0864 25.0421 57.7008 26.485 53.906 26.6905C49.0197 26.956 45.4118 24.6513 42.7943 20.6981C42.4103 20.117 42.0212 19.9015 41.3441 19.9316C38.666 20.0418 36.1142 20.623 33.6483 21.6651C32.5417 22.1361 31.3947 22.562 30.2223 22.8175C28.7671 23.1532 28.1253 22.5119 28.1152 20.8835Z" fill="#F54748"/>
<path d="M46.0738 16.1482C45.6393 14.7854 45.3007 12.8915 46.2659 11.3984C46.6145 10.8573 46.9076 10.717 47.2259 10.2611C47.8475 9.35924 48.2214 7.70083 46.8419 4.37399C47.3169 4.70968 47.9435 5.25079 48.373 6.0825C48.8631 7.02945 48.7974 7.76095 48.949 8.55258C49.1259 9.4895 49.6565 10.7621 51.2482 12.16C51.0814 11.649 50.9046 10.9375 50.8641 10.0707C50.8288 9.21895 50.9349 8.49747 51.0561 7.98141C51.2381 8.50749 51.5311 9.17888 52.0162 9.88032C52.3396 10.3463 52.6731 10.722 52.9763 11.0177C52.5569 10.4064 52.0011 9.44442 51.6373 8.16679C51.3593 7.18978 51.0562 5.55642 51.4452 3.60741C51.7787 1.93898 52.4862 0.711463 52.9763 0C52.9409 0.611257 52.9561 1.77866 53.5524 3.03624C54.467 4.97523 56.1345 5.83199 56.6145 6.07249C57.8171 6.67372 58.0647 6.34805 60.4447 7.02444C62.3042 7.55052 63.234 7.81607 64.0829 8.54256C64.568 8.95341 65.6948 10.0857 65.998 12.5308C64.9065 12.3504 63.4311 12.1901 61.6878 12.2452C59.7373 12.3053 58.2719 12.6059 57.2815 12.8164C55.7656 13.137 54.5478 13.5378 52.1122 14.3345C50.6974 14.8004 49.6868 15.1662 47.898 15.6622C47.135 15.8827 46.5034 16.043 46.0738 16.1482Z" fill="#FDC55E"/>
<path d="M58.0346 12.4705C58.0599 12.5507 59.1716 12.1098 60.7178 11.8993C62.5571 11.6488 64.1488 11.8392 65.3161 12.0897C65.3262 11.258 65.0887 10.6818 64.9321 10.3812C64.5228 9.58459 63.8911 9.14368 63.209 8.67271C62.6784 8.30195 62.1984 8.06144 61.8699 7.91113C62.3146 8.25684 62.8653 8.75286 63.401 9.42925C63.9568 10.1307 64.3156 10.8021 64.548 11.3282C63.7749 11.2079 62.6329 11.1127 61.2939 11.3282C59.4798 11.6288 58.0043 12.3803 58.0346 12.4705Z" fill="white"/>
<path d="M88.4085 56.1362C89.3736 54.7183 93.5929 54.7935 96.3721 55.2945C93.8658 53.3255 90.9299 52.3384 87.5545 52.3384C86.7308 52.3384 85.4322 52.5138 83.6535 52.8695C80.263 53.5459 77.8173 54.092 76.3115 54.4979C74.4115 55.0089 73.1028 55.2645 72.3853 55.2645C71.8395 55.2645 71.2887 55.2043 70.743 55.0841C69.6667 54.8486 68.6814 54.0219 67.792 52.614C67.3625 51.9376 67.1503 50.8153 67.1503 49.2521C67.1503 48.3853 67.3575 47.1077 67.7668 45.4092C68.2114 43.5754 68.646 42.3629 69.0755 41.7667C71.1119 41.0051 72.9613 40.0682 74.6187 38.9659C76.9987 37.3877 78.1862 35.8846 78.1862 34.4617C78.1862 33.8654 77.984 33.3995 77.5848 33.0638C77.1806 32.7231 76.6753 32.5527 76.0588 32.5527C74.3963 32.5527 72.3701 33.8354 69.9749 36.3956C68.3832 38.1092 66.8421 40.1283 65.3514 42.4531L63.1432 43.0894C64.1336 39.6624 65.5636 36.8115 67.4333 34.5368C67.5849 34.3514 67.691 34.2162 67.7415 34.131L67.6657 33.9807L67.5141 33.9055C66.746 34.0408 64.8208 36.06 61.7385 39.963C60.6925 41.2857 59.7779 42.6786 58.9896 44.1366C58.838 44.2067 58.6561 44.2368 58.4489 44.2368C58.1255 44.2368 57.3171 44.0414 56.0336 43.6506C55.3312 43.0894 54.9826 42.3779 54.9826 41.5112C54.9826 37.8436 57.9891 35.4286 63.9921 34.2562C62.077 34.0859 61.021 34.0007 60.834 34.0007C59.0856 34.0007 57.4686 34.7673 55.9831 36.3055C54.4924 37.8436 53.7496 39.482 53.7496 41.2306C53.7496 42.4882 54.2549 43.4301 55.2655 44.0564C56.1195 44.5975 57.216 44.8731 58.55 44.8731C57.7264 46.792 56.9684 48.1849 56.266 49.0467C55.119 50.4746 53.7648 51.1861 52.2084 51.1861C51.6273 51.1861 51.0361 51.0658 50.4348 50.8303C49.6819 50.5397 49.3029 50.1539 49.3029 49.6579C49.3029 49.3172 49.596 49.0366 50.1771 48.8162C50.2125 48.8011 50.6572 48.6709 51.5111 48.4354C52.0265 48.1999 52.2792 47.8141 52.2792 47.288C52.2792 46.777 52.1175 46.3712 51.789 46.0655C51.4656 45.7599 51.0462 45.6046 50.5308 45.6046C49.7779 45.6046 49.1614 45.8701 48.6814 46.4062C48.2014 46.9423 47.9639 47.5887 47.9639 48.3552C47.9639 49.5276 48.5197 50.4095 49.6314 51.0007C50.5207 51.4767 51.6071 51.7121 52.8906 51.7121C55.3211 51.7121 57.4282 50.9255 59.2069 49.3473C60.7986 47.9594 62.0316 46.0505 62.9057 43.6255C63.7799 43.4 64.4621 43.2046 64.9573 43.0343C64.0477 45.344 63.598 47.4534 63.598 49.3723C63.598 51.2362 63.9568 52.594 64.6743 53.4457C66.1801 55.2244 67.5091 56.2214 68.6561 56.4218C69.596 56.5922 70.2882 56.6773 70.738 56.6773C71.885 56.6773 72.9714 56.5321 73.9972 56.2465L77.1553 55.3546C78.4034 54.9989 79.6818 54.6933 80.9805 54.4377C81.7485 54.2874 82.4611 54.2073 83.1129 54.2073C85.0128 54.2073 86.5035 54.6131 87.5798 55.4298C87.8627 55.6552 88.1407 55.8907 88.4085 56.1362ZM72.0214 36.2704C73.406 34.1811 74.6641 33.1389 75.796 33.1389C76.5136 33.1389 76.8723 33.5147 76.8723 34.2612C76.8723 35.4988 75.9325 36.8566 74.0477 38.3346C72.5924 39.472 71.0765 40.3638 69.505 41.0101C70.3084 39.1563 71.1472 37.5781 72.0214 36.2704Z" fill="#191919"/>
<path d="M96.9398 56.2238C97.0365 56.7629 97.0701 57.4965 96.616 58.0153C96.452 58.2018 96.33 58.2423 96.1829 58.4004C95.8927 58.7125 95.6614 59.3205 96.0231 60.6539C95.8549 60.504 95.6404 60.2648 95.5142 59.9284C95.3712 59.5474 95.4385 59.2678 95.4217 58.9638C95.4007 58.599 95.2619 58.0883 94.7152 57.4803C94.7531 57.683 94.7867 57.9626 94.7531 58.291C94.7237 58.6152 94.6437 58.8827 94.568 59.0732C94.526 58.8665 94.4461 58.5949 94.2947 58.3031C94.1938 58.1086 94.0844 57.9505 93.9793 57.8208C94.1097 58.0761 94.2779 58.4652 94.3536 58.9678C94.4124 59.3529 94.4419 59.9892 94.1896 60.7066C93.9709 61.3227 93.6303 61.7524 93.4032 61.9996C93.4494 61.7686 93.5042 61.3268 93.3402 60.8201C93.0878 60.0379 92.4823 59.6285 92.3056 59.515C91.8683 59.2272 91.7548 59.3367 90.8633 58.9597C90.1652 58.6679 89.8162 58.5179 89.5218 58.2018C89.3536 58.0194 88.9751 57.533 88.9835 56.5927C89.9633 55.1822 95.0096 55.5875 96.9398 56.2238Z" fill="#F54748"/>
<path d="M90.4095 35.5335C91.2467 35.5335 91.9254 34.8606 91.9254 34.0304C91.9254 33.2003 91.2467 32.5273 90.4095 32.5273C89.5723 32.5273 88.8936 33.2003 88.8936 34.0304C88.8936 34.8606 89.5723 35.5335 90.4095 35.5335Z" stroke="#191919" stroke-width="0.25" stroke-miterlimit="10"/>
<path d="M89.7725 33.1691H90.015V34.8976H89.7725V33.1691ZM89.8786 33.9357H90.4748C90.5203 33.9357 90.5607 33.9256 90.5961 33.9006C90.6315 33.8805 90.6618 33.8455 90.677 33.8054C90.6972 33.7653 90.7073 33.7152 90.7073 33.6651C90.7073 33.61 90.6972 33.5649 90.677 33.5248C90.6568 33.4847 90.6315 33.4547 90.5961 33.4296C90.5607 33.4096 90.5203 33.3945 90.4698 33.3945H89.8736V33.1641H90.4597C90.5607 33.1641 90.6466 33.1841 90.7275 33.2242C90.8083 33.2643 90.8639 33.3244 90.9043 33.3995C90.9448 33.4747 90.965 33.5649 90.965 33.6601C90.965 33.7603 90.9448 33.8455 90.8993 33.9206C90.8538 33.9958 90.7982 34.0559 90.7224 34.096C90.6466 34.1361 90.5557 34.1561 90.4597 34.1561H89.8736V33.9357H89.8786ZM90.3536 34.111L90.5961 34.0559L91.0408 34.8976H90.7528L90.3536 34.111Z" fill="#191919"/>
</svg>
